<svg xmlns="http://www.w3.org/2000/svg" width="1600" height="900" viewBox="0 0 1600 900">
  <defs>
    <linearGradient id="bg" x1="0" y1="0" x2="1" y2="1">
      <stop offset="0%" stop-color="#f8fafc"/>
      <stop offset="100%" stop-color="#e2e8f0"/>
    </linearGradient>
  </defs>
  <rect width="1600" height="900" fill="url(#bg)"/>
  <rect x="70" y="60" width="1460" height="780" rx="24" fill="#ffffff" stroke="#dbe3ef" stroke-width="2"/>
  <text x="120" y="145" font-size="42" font-family="Arial, Helvetica, sans-serif" fill="#0f172a">Research Goals Dashboard</text>
  <text x="120" y="188" font-size="20" font-family="Arial, Helvetica, sans-serif" fill="#475569">Set hypotheses, KPIs, and study scope before fieldwork.</text>

  <rect x="120" y="230" width="900" height="530" rx="16" fill="#f8fafc" stroke="#e2e8f0"/>
  <rect x="150" y="270" width="260" height="140" rx="12" fill="#e0f2fe"/>
  <rect x="430" y="270" width="260" height="140" rx="12" fill="#dcfce7"/>
  <rect x="710" y="270" width="280" height="140" rx="12" fill="#fee2e2"/>
  <rect x="150" y="440" width="840" height="280" rx="12" fill="#ffffff" stroke="#dbe3ef"/>
  <polyline points="180,660 280,600 380,610 500,520 620,540 760,470 940,500" fill="none" stroke="#2563eb" stroke-width="5"/>

  <rect x="1060" y="230" width="420" height="530" rx="16" fill="#0f172a"/>
  <rect x="1085" y="260" width="370" height="120" rx="12" fill="#1e293b"/>
  <rect x="1085" y="395" width="370" height="120" rx="12" fill="#1e293b"/>
  <rect x="1085" y="530" width="370" height="205" rx="12" fill="#1e293b"/>
</svg>
