<svg xmlns="http://www.w3.org/2000/svg" width="1600" height="900" viewBox="0 0 1600 900">
  <rect width="1600" height="900" fill="#f8fafc"/>
  <rect x="70" y="60" width="1460" height="780" rx="24" fill="#ffffff" stroke="#d7dee8" stroke-width="2"/>
  <text x="120" y="145" font-size="42" font-family="Arial, Helvetica, sans-serif" fill="#0f172a">User Interview Sessions</text>
  <text x="120" y="188" font-size="20" font-family="Arial, Helvetica, sans-serif" fill="#475569">Record responses, themes, and emotional signals.</text>

  <rect x="120" y="240" width="980" height="520" rx="18" fill="#f8fafc" stroke="#e2e8f0"/>
  <circle cx="210" cy="340" r="42" fill="#bfdbfe"/>
  <rect x="275" y="305" width="780" height="75" rx="10" fill="#e2e8f0"/>
  <circle cx="210" cy="470" r="42" fill="#bbf7d0"/>
  <rect x="275" y="435" width="780" height="75" rx="10" fill="#e2e8f0"/>
  <circle cx="210" cy="600" r="42" fill="#fecaca"/>
  <rect x="275" y="565" width="780" height="75" rx="10" fill="#e2e8f0"/>

  <rect x="1140" y="240" width="340" height="520" rx="18" fill="#0f172a"/>
  <rect x="1170" y="280" width="280" height="150" rx="12" fill="#1e293b"/>
  <rect x="1170" y="450" width="280" height="130" rx="12" fill="#1e293b"/>
  <rect x="1170" y="600" width="280" height="130" rx="12" fill="#1e293b"/>
</svg>
