<svg xmlns="http://www.w3.org/2000/svg" width="1600" height="900" viewBox="0 0 1600 900">
  <rect width="1600" height="900" fill="#f8fafc"/>
  <rect x="70" y="60" width="1460" height="780" rx="24" fill="#ffffff" stroke="#d7dee8" stroke-width="2"/>
  <text x="120" y="145" font-size="42" font-family="Arial, Helvetica, sans-serif" fill="#0f172a">Persona Profiles</text>
  <text x="120" y="188" font-size="20" font-family="Arial, Helvetica, sans-serif" fill="#475569">Transform interview data into clear user archetypes.</text>

  <rect x="120" y="240" width="430" height="520" rx="18" fill="#eff6ff" stroke="#bfdbfe"/>
  <circle cx="210" cy="330" r="48" fill="#93c5fd"/>
  <rect x="280" y="290" width="240" height="30" rx="8" fill="#60a5fa"/>
  <rect x="150" y="410" width="370" height="18" rx="6" fill="#bfdbfe"/>
  <rect x="150" y="445" width="370" height="18" rx="6" fill="#bfdbfe"/>
  <rect x="150" y="480" width="260" height="18" rx="6" fill="#bfdbfe"/>

  <rect x="585" y="240" width="430" height="520" rx="18" fill="#ecfdf5" stroke="#bbf7d0"/>
  <circle cx="675" cy="330" r="48" fill="#86efac"/>
  <rect x="745" y="290" width="240" height="30" rx="8" fill="#22c55e"/>
  <rect x="615" y="410" width="370" height="18" rx="6" fill="#bbf7d0"/>
  <rect x="615" y="445" width="370" height="18" rx="6" fill="#bbf7d0"/>
  <rect x="615" y="480" width="260" height="18" rx="6" fill="#bbf7d0"/>

  <rect x="1050" y="240" width="430" height="520" rx="18" fill="#fff1f2" stroke="#fecdd3"/>
  <circle cx="1140" cy="330" r="48" fill="#fca5a5"/>
  <rect x="1210" y="290" width="240" height="30" rx="8" fill="#ef4444"/>
  <rect x="1080" y="410" width="370" height="18" rx="6" fill="#fecdd3"/>
  <rect x="1080" y="445" width="370" height="18" rx="6" fill="#fecdd3"/>
  <rect x="1080" y="480" width="260" height="18" rx="6" fill="#fecdd3"/>
</svg>
